# xmcd CD database file
#
# Track frame offsets:
#	150
#	17550
#	34650
#	50325
#	66975
#	84075
#	101250
#	116775
#	131550
#	150000
#	166575
#	183750
#	199350
#	215925
#
# Disc length: 3177 seconds
#
# Revision: 1
# Processed by: cddbd v1.5.2PL0 Copyright (c) Steve Scherf et al.
# Submitted via: freeDBTagger 0.8.1.0
#
DISCID=ad0c670e
DTITLE=Ne-Yo - In My Own Words
DYEAR=2006
DGENRE=blues
TTITLE0=Stay
TTITLE1=Stay
TTITLE2=Stay
TTITLE3=Stay
TTITLE4=Stay
TTITLE5=Stay
TTITLE6=Stay
TTITLE7=Stay
TTITLE8=Stay
TTITLE9=Stay
TTITLE10=Stay
TTITLE11=Stay
TTITLE12=Stay
TTITLE13=Stay
EXTD=
EXTT0=
EXTT1=
EXTT2=
EXTT3=
EXTT4=
EXTT5=
EXTT6=
EXTT7=
EXTT8=
EXTT9=
EXTT10=
EXTT11=
EXTT12=
EXTT13=
PLAYORDER=
